<?xml version="1.0" encoding="UTF-8"?>
<svg width="16px" height="16px" viewBox="0 0 16 16" version="1.1" xmlns="http://www.w3.org/2000/svg" xmlns:xlink="http://www.w3.org/1999/xlink">
    <title>icon_dialog_topright_close</title>
    <g id="控件" stroke="none" stroke-width="1" fill="none" fill-rule="evenodd">
        <g id="icon/16/弹窗-右上关闭icon_dialog_topright_close" fill="#BBBBBB">
            <path d="M3.4759591,2.35685521 L3.56568542,2.43431458 L8,6.869 L12.4343146,2.43431458 C12.746734,2.12189514 13.253266,2.12189514 13.5656854,2.43431458 C13.8497031,2.71833224 13.8755229,3.1627735 13.6431448,3.4759591 L13.5656854,3.56568542 L9.131,8 L13.5656854,12.4343146 C13.8781049,12.746734 13.8781049,13.253266 13.5656854,13.5656854 C13.2816678,13.8497031 12.8372265,13.8755229 12.5240409,13.6431448 L12.4343146,13.5656854 L8,9.131 L3.56568542,13.5656854 C3.25326599,13.8781049 2.74673401,13.8781049 2.43431458,13.5656854 C2.15029691,13.2816678 2.12447712,12.8372265 2.35685521,12.5240409 L2.43431458,12.4343146 L6.869,8 L2.43431458,3.56568542 C2.12189514,3.25326599 2.12189514,2.74673401 2.43431458,2.43431458 C2.68993048,2.17869867 3.07548949,2.13222306 3.37835743,2.29488772 L3.4759591,2.35685521 Z" id="形状结合"></path>
        </g>
    </g>
</svg>