<?xml version="1.0" encoding="UTF-8"?>
<svg width="16px" height="16px" viewBox="0 0 16 16" version="1.1" xmlns="http://www.w3.org/2000/svg" xmlns:xlink="http://www.w3.org/1999/xlink">
    <title>icon_input_clear</title>
    <g id="控件" stroke="none" stroke-width="1" fill="none" fill-rule="evenodd">
        <g id="icon/16/输入清除文字icon_input_clear" fill="#BBBBBB">
            <path d="M8,1 C11.8659932,1 15,4.13400675 15,8 C15,11.8659932 11.8659932,15 8,15 C4.13400675,15 1,11.8659932 1,8 C1,4.13400675 4.13400675,1 8,1 Z M6.2290873,5.17157288 C5.93619408,4.87867966 5.46132034,4.87867966 5.16842712,5.17157288 C4.87553391,5.46446609 4.87553391,5.93933983 5.16842712,6.23223305 L5.16842712,6.23223305 L6.93619408,8 L5.16842712,9.76776695 C4.87553391,10.0606602 4.87553391,10.5355339 5.16842712,10.8284271 C5.46132034,11.1213203 5.93619408,11.1213203 6.2290873,10.8284271 L6.2290873,10.8284271 L7.99685425,9.06066017 L9.7646212,10.8284271 C10.0575144,11.1213203 10.5323882,11.1213203 10.8252814,10.8284271 C11.1181746,10.5355339 11.1181746,10.0606602 10.8252814,9.76776695 L10.8252814,9.76776695 L9.05751442,8 L10.8252814,6.23223305 C11.1181746,5.93933983 11.1181746,5.46446609 10.8252814,5.17157288 C10.5323882,4.87867966 10.0575144,4.87867966 9.7646212,5.17157288 L9.7646212,5.17157288 L7.99685425,6.93933983 Z" id="形状结合"></path>
        </g>
    </g>
</svg>