<svg width="16" height="16" xmlns="http://www.w3.org/2000/svg"><path d="M8 2.2c4.11 0 7.8 3.494 7.8 5.8 0 2.306-3.69 5.8-7.8 5.8C3.89 13.8.2 10.306.2 8 .2 5.694 3.89 2.2 8 2.2Zm0 1.6c-1.816 0-3.4.706-4.65 1.89C2.435 6.554 1.8 7.645 1.8 8s.636 1.446 1.55 2.31C4.6 11.494 6.183 12.2 8 12.2c1.816 0 3.4-.706 4.65-1.89.914-.864 1.55-1.955 1.55-2.31s-.636-1.446-1.55-2.31C11.4 4.506 9.817 3.8 8 3.8Zm0 1.4a2.8 2.8 0 1 1 0 5.6 2.8 2.8 0 0 1 0-5.6Zm0 1.6a1.2 1.2 0 1 0 0 2.4 1.2 1.2 0 0 0 0-2.4Z" fill="#BBB" fill-rule="evenodd"/></svg>