<svg width="16" height="16" xmlns="http://www.w3.org/2000/svg"><g fill="none" fill-rule="evenodd"><path d="M3.836 3.363 4.992 4.52c-.596.306-1.146.7-1.643 1.171C2.436 6.554 1.8 7.645 1.8 8s.636 1.446 1.55 2.31C4.6 11.494 6.183 12.2 8 12.2a6.547 6.547 0 0 0 3.605-1.065l1.142 1.14C11.406 13.174 9.74 13.8 8 13.8 3.89 13.8.2 10.306.2 8c0-1.467 1.493-3.413 3.636-4.637ZM8 2.2c4.11 0 7.8 3.494 7.8 5.8 0 .994-.686 2.21-1.796 3.27l-1.156-1.155C13.654 9.29 14.2 8.33 14.2 8c0-.355-.636-1.446-1.55-2.31C11.4 4.506 9.817 3.8 8 3.8c-.46 0-.905.045-1.333.132L5.389 2.655A7.971 7.971 0 0 1 8 2.2Z" fill="#BBB" fill-rule="nonzero"/><path stroke="#BBB" stroke-width="1.6" stroke-linecap="round" stroke-linejoin="round" d="m3.05 3.05 9.9 9.9"/><path d="m3.54 2.418.076.067 9.9 9.9a.8.8 0 0 1-1.057 1.197l-.075-.067-.648-.648c-1.129.57-2.41.933-3.736.933C3.89 13.8.2 10.306.2 8c0-1.233 1.055-2.806 2.666-4.003l-.381-.381A.8.8 0 0 1 3.54 2.418ZM3.35 5.69C2.435 6.554 1.8 7.645 1.8 8s.636 1.446 1.55 2.31C4.6 11.494 6.183 12.2 8 12.2c.916 0 1.774-.18 2.559-.51L4.006 5.136a7.44 7.44 0 0 0-.657.554ZM8 2.2c4.11 0 7.8 3.494 7.8 5.8 0 .994-.686 2.21-1.796 3.27l-1.156-1.155C13.654 9.29 14.2 8.33 14.2 8c0-.355-.636-1.446-1.55-2.31C11.4 4.506 9.817 3.8 8 3.8c-.46 0-.905.045-1.333.132L5.389 2.655A7.971 7.971 0 0 1 8 2.2Z" fill="#BBB"/></g></svg>